<svg width="26" height="36" viewBox="0 0 26 36" fill="none" xmlns="http://www.w3.org/2000/svg">
<path d="M25.1172 24.5C24.9609 26.1562 24.5703 27.6641 23.9453 29.0234C23.3203 30.3672 22.5 31.5156 21.4844 32.4688C20.4531 33.4375 19.2266 34.1875 17.8047 34.7188C16.3984 35.2344 14.8359 35.4922 13.1172 35.4922C11.7109 35.4922 10.4141 35.3047 9.22656 34.9297C8.05469 34.5391 7.00781 33.9922 6.08594 33.2891C5.19531 32.6328 4.41406 31.8438 3.74219 30.9219C3.08594 29.9844 2.53125 28.9609 2.07812 27.8516C1.625 26.7578 1.28125 25.5703 1.04688 24.2891C0.828125 23.0078 0.71875 21.6719 0.71875 20.2812V15.6172C0.71875 14.2891 0.828125 13.0078 1.04688 11.7734C1.26562 10.5391 1.59375 9.375 2.03125 8.28125C2.5 7.0625 3.10156 5.96094 3.83594 4.97656C4.58594 3.97656 5.44531 3.125 6.41406 2.42188C7.33594 1.78125 8.35156 1.28125 9.46094 0.921875C10.5859 0.5625 11.8125 0.382812 13.1406 0.382812C14.9375 0.382812 16.5391 0.648438 17.9453 1.17969C19.3672 1.71094 20.5781 2.46094 21.5781 3.42969C22.5938 4.41406 23.3906 5.60156 23.9688 6.99219C24.5625 8.38281 24.9453 9.92969 25.1172 11.6328H19.4922C19.3984 10.6172 19.2031 9.70312 18.9062 8.89062C18.625 8.0625 18.2344 7.35938 17.7344 6.78125C17.2188 6.20312 16.5859 5.76562 15.8359 5.46875C15.0859 5.15625 14.1875 5 13.1406 5C12.4062 5 11.7422 5.10156 11.1484 5.30469C10.5703 5.50781 10.0547 5.79688 9.60156 6.17188C8.97656 6.625 8.45312 7.21875 8.03125 7.95312C7.625 8.67188 7.28906 9.47656 7.02344 10.3672C6.82031 11.1484 6.66406 11.9844 6.55469 12.875C6.46094 13.75 6.41406 14.6484 6.41406 15.5703V20.2812C6.41406 21.4219 6.47656 22.4922 6.60156 23.4922C6.74219 24.4922 6.95312 25.4062 7.23438 26.2344C7.45312 26.9219 7.72656 27.5469 8.05469 28.1094C8.39844 28.6719 8.80469 29.1562 9.27344 29.5625C9.75781 30 10.3125 30.3359 10.9375 30.5703C11.5781 30.7891 12.3047 30.8984 13.1172 30.8984C14.0859 30.8984 14.9453 30.7578 15.6953 30.4766C16.4453 30.1953 17.0859 29.7812 17.6172 29.2344C18.1328 28.7031 18.5469 28.0391 18.8594 27.2422C19.1719 26.4453 19.375 25.5312 19.4688 24.5H25.1172Z" fill="url(#paint0_linear_38_129)"/>
<defs>
<linearGradient id="paint0_linear_38_129" x1="13" y1="-15" x2="13" y2="48" gradientUnits="userSpaceOnUse">
<stop stop-color="white" stop-opacity="0.82"/>
<stop offset="0.47" stop-color="#C0F9F5" stop-opacity="0.8659"/>
<stop offset="0.875" stop-color="#09E6D7"/>
</linearGradient>
</defs>
</svg>
